<svg aria-hidden="true" style="position: absolute; width: 0; height: 0; overflow: hidden;" version="1.1" xmlns="http://www.w3.org/2000/svg" xmlns:xlink="http://www.w3.org/1999/xlink">
<defs>
<symbol id="icon-linkedin" viewBox="0 0 40 40">
    <path d="M39.99 40v-0.002h0.010v-14.67c0-7.177-1.545-12.705-9.935-12.705-4.033 0-6.74 2.213-7.845 4.312h-0.117v-3.642h-7.955v26.705h8.283v-13.223c0-3.482 0.66-6.848 4.972-6.848 4.249 0 4.312 3.973 4.312 7.072v13.002h8.275z"></path>
    <path d="M0.66 13.295h8.293v26.705h-8.293v-26.705z"></path>
<path d="M4.803-0c-2.652 0-4.803 2.152-4.803 4.803s2.152 4.848 4.803 4.848c2.652 0 4.803-2.197 4.803-4.848-0.002-2.652-2.153-4.803-4.803-4.803v0z"></path>
</symbol>
    <symbol id="icon-facebook" viewBox="0 0 40 40">
    <path d="M26.662 6.641h3.652v-6.36c-0.63-0.087-2.797-0.282-5.32-0.282-5.265 0-8.872 3.312-8.872 9.398v5.602h-5.81v7.11h5.81v17.89h7.123v-17.888h5.575l0.885-7.11h-6.462v-4.898c0.002-2.055 0.555-3.462 3.418-3.462z"></path>
</symbol>
    <symbol id="icon-twitter" viewBox="0 0 40 40">
<path d="M40 7.597c-1.488 0.652-3.072 1.085-4.725 1.295 1.7-1.015 2.998-2.61 3.608-4.532-1.585 0.945-3.335 1.612-5.2 1.985-1.505-1.603-3.65-2.595-5.99-2.595-4.54 0-8.195 3.685-8.195 8.203 0 0.65 0.055 1.275 0.19 1.87-6.817-0.332-12.85-3.6-16.902-8.578-0.707 1.228-1.123 2.632-1.123 4.145 0 2.84 1.462 5.357 3.642 6.815-1.317-0.025-2.61-0.408-3.705-1.010 0 0.025 0 0.058 0 0.090 0 3.985 2.842 7.295 6.57 8.057-0.667 0.183-1.395 0.27-2.15 0.27-0.525 0-1.055-0.030-1.553-0.14 1.062 3.248 4.078 5.635 7.662 5.713-2.79 2.183-6.332 3.497-10.168 3.497-0.673 0-1.318-0.030-1.963-0.112 3.633 2.342 7.938 3.68 12.58 3.68 15.090 0 23.34-12.5 23.34-23.335 0-0.362-0.013-0.713-0.030-1.060 1.627-1.155 2.995-2.598 4.11-4.258z"></path>
</symbol>
<symbol id="icon-instagram" viewBox="0 0 40 40">
    <path d="M39.961 11.76c-0.094-2.125-0.438-3.586-0.93-4.853-0.508-1.344-1.289-2.547-2.313-3.547-1-1.016-2.211-1.805-3.54-2.305-1.274-0.492-2.727-0.836-4.853-0.93-2.141-0.102-2.821-0.125-8.252-0.125s-6.111 0.024-8.244 0.117c-2.125 0.094-3.587 0.438-4.852 0.93-1.344 0.508-2.548 1.289-3.548 2.313-1.016 1-1.805 2.211-2.305 3.54-0.492 1.274-0.836 2.727-0.93 4.852-0.102 2.141-0.125 2.821-0.125 8.252s0.024 6.11 0.117 8.244c0.094 2.125 0.438 3.586 0.93 4.853 0.508 1.344 1.297 2.547 2.313 3.547 1 1.016 2.211 1.805 3.54 2.305 1.274 0.492 2.727 0.836 4.853 0.93 2.133 0.094 2.813 0.117 8.244 0.117s6.111-0.023 8.244-0.117c2.125-0.094 3.586-0.437 4.852-0.93 2.688-1.039 4.814-3.164 5.853-5.852 0.492-1.274 0.836-2.727 0.93-4.852 0.094-2.134 0.117-2.813 0.117-8.244s-0.008-6.111-0.102-8.244zM36.359 28.091c-0.086 1.954-0.414 3.009-0.688 3.712-0.672 1.742-2.055 3.126-3.798 3.798-0.703 0.274-1.766 0.602-3.712 0.688-2.11 0.094-2.742 0.117-8.079 0.117s-5.978-0.023-8.080-0.117c-1.954-0.086-3.008-0.414-3.712-0.688-0.867-0.321-1.656-0.829-2.297-1.492-0.664-0.649-1.172-1.43-1.493-2.297-0.274-0.703-0.602-1.766-0.687-3.712-0.094-2.11-0.117-2.743-0.117-8.080s0.023-5.978 0.117-8.080c0.086-1.954 0.414-3.008 0.687-3.712 0.321-0.867 0.828-1.656 1.501-2.298 0.648-0.664 1.43-1.172 2.297-1.492 0.703-0.274 1.766-0.602 3.712-0.688 2.11-0.094 2.743-0.117 8.080-0.117 5.345 0 5.978 0.024 8.080 0.117 1.954 0.086 3.009 0.414 3.712 0.688 0.867 0.32 1.656 0.828 2.297 1.492 0.664 0.649 1.172 1.43 1.492 2.298 0.274 0.703 0.601 1.766 0.688 3.712 0.094 2.11 0.117 2.743 0.117 8.080s-0.024 5.962-0.117 8.072z"></path>
    <path d="M20.074 9.728c-5.673 0-10.275 4.602-10.275 10.275s4.603 10.275 10.275 10.275c5.673 0 10.275-4.602 10.275-10.275s-4.602-10.275-10.275-10.275zM20.074 26.669c-3.68 0-6.665-2.985-6.665-6.665s2.985-6.665 6.665-6.665c3.681 0 6.665 2.985 6.665 6.665s-2.985 6.665-6.665 6.665z"></path>
    <path d="M33.155 9.322c0 1.325-1.074 2.399-2.399 2.399s-2.399-1.074-2.399-2.399c0-1.325 1.074-2.399 2.399-2.399s2.399 1.074 2.399 2.399z"></path>
</symbol>
<symbol id="icon-linkedif" viewBox="0 0 24 24">
    <path d="M23.994 24v-0.001h0.006v-8.802c0-4.306-0.927-7.623-5.961-7.623-2.42 0-4.044 1.328-4.707 2.587h-0.070v-2.185h-4.773v16.023h4.97v-7.934c0-2.089 0.396-4.109 2.983-4.109 2.549 0 2.587 2.384 2.587 4.243v7.801h4.965z"></path>
    <path d="M0.396 7.977h4.976v16.023h-4.976v-16.023z"></path>
    <path d="M2.882 0c-1.591 0-2.882 1.291-2.882 2.882s1.291 2.909 2.882 2.909c1.591 0 2.882-1.318 2.882-2.909-0.001-1.591-1.292-2.882-2.882-2.882v0z"></path>
</symbol>
<symbol id="icon-twitterf" viewBox="0 0 24 24">
     <path d="M24 4.559c-0.893 0.391-1.843 0.651-2.835 0.777 1.020-0.609 1.799-1.566 2.165-2.72-0.951 0.567-2.001 0.967-3.12 1.191-0.903-0.962-2.19-1.557-3.594-1.557-2.724 0-4.917 2.211-4.917 4.921 0 0.39 0.033 0.765 0.114 1.122-4.090-0.2-7.71-2.16-10.142-5.147-0.424 0.737-0.674 1.58-0.674 2.487 0 1.704 0.877 3.215 2.186 4.089-0.791-0.015-1.566-0.245-2.223-0.606 0 0.015 0 0.035 0 0.054 0 2.391 1.705 4.377 3.942 4.834-0.401 0.11-0.837 0.162-1.29 0.162-0.315 0-0.633-0.018-0.931-0.084 0.637 1.948 2.447 3.381 4.597 3.428-1.674 1.309-3.8 2.098-6.101 2.098-0.403 0-0.79-0.018-1.177-0.067 2.18 1.405 4.762 2.208 7.548 2.208 9.054 0 14.004-7.5 14.004-14.001 0-0.217-0.008-0.428-0.018-0.636 0.976-0.693 1.797-1.558 2.466-2.554z"></path>
</symbol>
 <symbol id="icon-facebookf" viewBox="0 0 24 24">
   <path d="M15.997 3.985h2.191v-3.816c-0.378-0.052-1.678-0.169-3.192-0.169-3.159 0-5.323 1.987-5.323 5.639v3.361h-3.486v4.266h3.486v10.734h4.274v-10.733h3.345l0.531-4.266h-3.877v-2.939c0.001-1.233 0.333-2.077 2.051-2.077v0z"></path>
</symbol>
<symbol id="icon-instagramf" viewBox="0 0 24 24">
    <path d="M23.976 7.056c-0.056-1.275-0.262-2.152-0.558-2.912-0.305-0.806-0.774-1.528-1.388-2.128-0.6-0.609-1.327-1.083-2.124-1.383-0.764-0.295-1.636-0.502-2.911-0.558-1.285-0.061-1.692-0.075-4.951-0.075s-3.666 0.014-4.946 0.070c-1.275 0.056-2.152 0.263-2.911 0.558-0.807 0.305-1.528 0.774-2.129 1.388-0.609 0.6-1.083 1.327-1.383 2.124-0.295 0.764-0.502 1.636-0.558 2.911-0.061 1.285-0.075 1.693-0.075 4.951s0.014 3.666 0.070 4.946c0.056 1.275 0.263 2.152 0.558 2.912 0.305 0.806 0.778 1.528 1.388 2.128 0.6 0.609 1.327 1.083 2.124 1.383 0.764 0.295 1.636 0.502 2.912 0.558 1.28 0.056 1.688 0.070 4.946 0.070s3.666-0.014 4.946-0.070c1.275-0.056 2.152-0.262 2.911-0.558 1.613-0.624 2.888-1.899 3.512-3.512 0.295-0.764 0.502-1.636 0.558-2.912 0.056-1.28 0.070-1.688 0.070-4.946s-0.005-3.666-0.061-4.946zM21.815 16.855c-0.052 1.172-0.249 1.805-0.413 2.227-0.403 1.045-1.233 1.875-2.279 2.279-0.422 0.164-1.059 0.361-2.227 0.412-1.266 0.056-1.645 0.070-4.848 0.070s-3.587-0.014-4.848-0.070c-1.172-0.051-1.805-0.248-2.227-0.412-0.52-0.192-0.994-0.497-1.378-0.896-0.399-0.389-0.703-0.858-0.896-1.378-0.164-0.422-0.361-1.060-0.412-2.227-0.056-1.266-0.070-1.646-0.070-4.848s0.014-3.587 0.070-4.848c0.051-1.172 0.248-1.805 0.412-2.227 0.192-0.521 0.497-0.994 0.9-1.378 0.389-0.399 0.858-0.703 1.378-0.895 0.422-0.164 1.060-0.361 2.227-0.413 1.266-0.056 1.646-0.070 4.848-0.070 3.207 0 3.587 0.014 4.848 0.070 1.172 0.052 1.805 0.249 2.227 0.413 0.52 0.192 0.994 0.497 1.378 0.895 0.399 0.389 0.703 0.858 0.896 1.378 0.164 0.422 0.361 1.059 0.413 2.227 0.056 1.266 0.070 1.646 0.070 4.848s-0.014 3.577-0.070 4.843z"></path>
    <path d="M12.045 5.837c-3.404 0-6.165 2.761-6.165 6.165s2.762 6.165 6.165 6.165c3.404 0 6.165-2.761 6.165-6.165s-2.761-6.165-6.165-6.165zM12.045 16.002c-2.208 0-3.999-1.791-3.999-3.999s1.791-3.999 3.999-3.999c2.208 0 3.999 1.791 3.999 3.999s-1.791 3.999-3.999 3.999v0z"></path>
    <path d="M19.893 5.593c0 0.795-0.644 1.439-1.44 1.439s-1.439-0.644-1.439-1.439c0-0.795 0.645-1.439 1.439-1.439s1.44 0.644 1.44 1.439v0z"></path>
</symbol>

<symbol id="icon-group1" viewBox="0 0 104 56">
   <path d="M3.064 0l3.578 3.409-6.642-0.004v16.541h17.362v-6.324l3.574 3.405v-17.027h-17.872zM17.205 13.222l-10.146-9.666h10.146v9.666zM14.054 17.526h-11.307v-11.124h0.799v10.371h10.508v0.753zM5.002 23.010l-0.421-0.866h-0.348l0.611 1.147v0.668h0.315v-0.668l0.611-1.147h-0.347l-0.421 0.866zM6.556 22.143h0.075l0.686 1.815h-0.329l-0.147-0.425h-0.703l-0.147 0.425h-0.328l0.683-1.815h0.209zM6.223 23.285h0.531l-0.266-0.77-0.265 0.77zM8.416 22.985c-0.014-0.017-0.027-0.034-0.039-0.051-0.047-0.062-0.083-0.121-0.108-0.178s-0.039-0.118-0.039-0.18c0-0.095 0.019-0.176 0.059-0.244s0.094-0.121 0.166-0.157c0.071-0.037 0.155-0.056 0.251-0.056 0.092 0 0.172 0.019 0.238 0.056s0.119 0.085 0.155 0.146c0.037 0.061 0.055 0.127 0.055 0.199 0 0.057-0.010 0.11-0.031 0.157s-0.049 0.091-0.086 0.13c-0.037 0.039-0.079 0.076-0.127 0.111l-0.126 0.092 0.359 0.424c0.012-0.023 0.023-0.048 0.032-0.073 0.031-0.080 0.046-0.168 0.046-0.266h0.259c0 0.088-0.009 0.172-0.026 0.251s-0.044 0.152-0.081 0.219c-0.015 0.028-0.032 0.055-0.051 0.080l0.266 0.314h-0.348l-0.105-0.124c-0.057 0.043-0.119 0.077-0.186 0.102-0.088 0.032-0.182 0.047-0.282 0.047-0.121 0-0.225-0.022-0.313-0.066s-0.156-0.105-0.204-0.182c-0.047-0.077-0.071-0.166-0.071-0.266 0-0.074 0.015-0.139 0.046-0.195s0.073-0.109 0.126-0.157c0.049-0.045 0.105-0.089 0.168-0.134zM8.565 23.167l-0.038 0.027c-0.044 0.036-0.077 0.070-0.099 0.104s-0.034 0.062-0.041 0.090c-0.007 0.027-0.010 0.052-0.010 0.072 0 0.053 0.011 0.101 0.034 0.145s0.057 0.078 0.101 0.103c0.045 0.025 0.099 0.037 0.163 0.037 0.069 0 0.136-0.015 0.201-0.046 0.032-0.016 0.063-0.035 0.092-0.057l-0.404-0.475zM8.637 22.836l0.111-0.075c0.052-0.035 0.090-0.069 0.112-0.102s0.034-0.076 0.034-0.127c0-0.043-0.017-0.083-0.050-0.12s-0.080-0.055-0.141-0.055c-0.042 0-0.078 0.010-0.107 0.030s-0.051 0.045-0.066 0.077c-0.014 0.032-0.021 0.067-0.021 0.106 0 0.037 0.010 0.076 0.029 0.116s0.045 0.080 0.079 0.123c0.007 0.009 0.014 0.017 0.021 0.026zM11.813 23.368h-0.312c-0.009 0.079-0.028 0.146-0.057 0.201s-0.070 0.095-0.126 0.123c-0.055 0.028-0.127 0.042-0.216 0.042-0.073 0-0.136-0.015-0.188-0.044s-0.096-0.070-0.13-0.123c-0.033-0.053-0.058-0.117-0.075-0.191s-0.024-0.158-0.024-0.249v-0.153c0-0.096 0.009-0.182 0.026-0.257s0.045-0.139 0.081-0.191c0.036-0.052 0.080-0.091 0.133-0.117s0.115-0.040 0.187-0.040c0.087 0 0.158 0.015 0.212 0.045s0.095 0.071 0.122 0.127c0.028 0.056 0.047 0.123 0.055 0.201h0.312c-0.012-0.121-0.047-0.229-0.102-0.323s-0.132-0.167-0.232-0.221c-0.1-0.053-0.222-0.080-0.366-0.080-0.114 0-0.217 0.020-0.308 0.060s-0.168 0.098-0.233 0.173c-0.065 0.075-0.115 0.165-0.15 0.27s-0.051 0.224-0.051 0.354v0.151c0 0.13 0.017 0.249 0.050 0.354s0.083 0.196 0.147 0.271c0.064 0.074 0.141 0.131 0.231 0.172s0.191 0.060 0.303 0.060c0.146 0 0.271-0.027 0.373-0.080s0.182-0.126 0.238-0.218c0.057-0.093 0.090-0.199 0.1-0.318zM13.544 23.101v-0.1c0-0.137-0.018-0.26-0.055-0.368s-0.087-0.202-0.153-0.278c-0.066-0.077-0.146-0.136-0.238-0.176s-0.195-0.061-0.307-0.061c-0.111 0-0.213 0.020-0.305 0.061s-0.171 0.099-0.238 0.176c-0.067 0.076-0.118 0.169-0.155 0.278s-0.055 0.231-0.055 0.368v0.1c0 0.137 0.018 0.26 0.055 0.369s0.090 0.202 0.157 0.278c0.067 0.076 0.147 0.135 0.238 0.176s0.194 0.060 0.305 0.060c0.112 0 0.214-0.020 0.307-0.060s0.171-0.099 0.237-0.176c0.066-0.076 0.118-0.169 0.153-0.278s0.054-0.232 0.054-0.369zM13.231 22.999v0.102c0 0.101-0.010 0.191-0.030 0.269s-0.047 0.144-0.085 0.198c-0.037 0.053-0.083 0.093-0.137 0.121s-0.116 0.040-0.186 0.040c-0.069 0-0.13-0.013-0.184-0.040s-0.101-0.068-0.14-0.121c-0.038-0.054-0.067-0.12-0.087-0.198s-0.030-0.168-0.030-0.269v-0.102c0-0.101 0.010-0.191 0.030-0.268s0.049-0.143 0.086-0.196c0.038-0.053 0.084-0.093 0.138-0.12s0.115-0.041 0.184-0.041 0.131 0.014 0.186 0.041c0.055 0.027 0.101 0.066 0.138 0.12s0.067 0.118 0.086 0.196c0.020 0.077 0.030 0.167 0.030 0.268z"></path>
</symbol>
<symbol id="icon-group2" viewBox="0 0 104 56">
    <path d="M7.899 1.354h-0.063c-0.097-0.006-0.194-0.008-0.291-0.011v0h-0.21c-0.183 0-0.37 0.005-0.556 0.014-0.014-0.001-0.028-0.001-0.042 0-1.682 0.095-3.33 0.516-4.854 1.238l-0.2 0.096v10.219l0.467-0.158c0.41-0.141 0.846-0.268 1.298-0.385 1.221-0.314 2.476-0.48 3.736-0.496v1.343c-0.167 0.001-0.329 0.006-0.492 0.014h-0.039c-0.97 0.053-1.933 0.201-2.875 0.441-1.193 0.299-2.343 0.747-3.424 1.334v-13.106c1.123-0.655 2.332-1.147 3.593-1.461 1.106-0.286 2.244-0.432 3.386-0.437h0.197c0.236 0.006 0.466 0.016 0.682 0.033 0.569 0.040 1.134 0.13 1.687 0.269v1.322c-0.538-0.125-1.084-0.208-1.635-0.246-0.011-0.001-0.022-0.002-0.034-0.003-0.114-0.010-0.228-0.019-0.334-0.019zM10.224 2.705c0.293 0.022 0.597 0.033 0.904 0.033 1.201-0.004 2.396-0.158 3.56-0.457 1.192-0.3 2.342-0.748 3.423-1.336v12.873c-1.124 0.655-2.333 1.147-3.594 1.461-1.107 0.285-2.244 0.431-3.386 0.435-0.865 0.007-1.728-0.095-2.569-0.303v-12.956c0.198 0.046 0.403 0.088 0.611 0.123 0.341 0.058 0.701 0.1 1.051 0.126zM16.776 2.805l-0.467 0.157c-0.43 0.144-0.863 0.273-1.298 0.388-1.268 0.326-2.571 0.493-3.88 0.498-0.305 0-0.585-0.008-0.856-0.026l-0.372-0.025v10.512l0.32 0.028c0.297 0.026 0.602 0.039 0.911 0.039 1.031-0.004 2.057-0.137 3.056-0.395 0.822-0.206 1.622-0.494 2.388-0.858l0.2-0.096v-10.223z"></path>
    <path d="M1.263 19.483c-0.067-0.070-0.148-0.124-0.238-0.161s-0.186-0.053-0.282-0.050c-0.103-0.001-0.205 0.018-0.3 0.056-0.087 0.035-0.167 0.087-0.234 0.154s-0.117 0.147-0.151 0.235c-0.037 0.092-0.055 0.191-0.054 0.29v1.751c-0.004 0.123 0.019 0.246 0.069 0.359 0.041 0.090 0.101 0.17 0.175 0.235 0.070 0.059 0.152 0.101 0.241 0.124 0.085 0.024 0.173 0.036 0.262 0.036 0.098 0.001 0.194-0.020 0.283-0.061 0.088-0.038 0.167-0.093 0.234-0.162 0.065-0.068 0.117-0.148 0.153-0.235 0.037-0.088 0.056-0.183 0.056-0.279v-0.196h-0.458v0.156c0.001 0.053-0.008 0.106-0.027 0.156-0.015 0.037-0.038 0.071-0.067 0.099-0.028 0.023-0.061 0.040-0.096 0.050-0.031 0.010-0.063 0.016-0.096 0.016-0.041 0.005-0.082-0.001-0.12-0.018s-0.070-0.043-0.095-0.076c-0.043-0.070-0.064-0.152-0.061-0.235v-1.633c-0.003-0.091 0.016-0.18 0.056-0.262 0.024-0.037 0.057-0.066 0.097-0.085s0.084-0.026 0.127-0.020c0.039-0.001 0.079 0.007 0.114 0.024s0.066 0.043 0.090 0.075c0.051 0.067 0.078 0.15 0.076 0.235v0.151h0.453v-0.178c0.001-0.105-0.018-0.209-0.056-0.306-0.034-0.092-0.086-0.176-0.153-0.246z"></path>
    <path d="M3.983 19.463c-0.146-0.123-0.33-0.191-0.521-0.192-0.093 0-0.186 0.017-0.273 0.049-0.089 0.032-0.171 0.080-0.242 0.143-0.076 0.068-0.136 0.152-0.177 0.245-0.046 0.107-0.069 0.223-0.067 0.339v1.679c-0.003 0.118 0.020 0.236 0.067 0.344 0.041 0.090 0.102 0.17 0.177 0.235 0.070 0.065 0.152 0.115 0.242 0.148 0.088 0.032 0.18 0.049 0.273 0.049s0.186-0.017 0.273-0.049c0.091-0.033 0.175-0.083 0.248-0.148s0.132-0.145 0.173-0.235c0.047-0.108 0.070-0.226 0.067-0.344v-1.679c0.002-0.117-0.020-0.232-0.067-0.339-0.041-0.093-0.099-0.176-0.173-0.245zM3.769 21.727c0.004 0.045-0.002 0.090-0.018 0.132s-0.041 0.080-0.073 0.111c-0.060 0.051-0.137 0.078-0.215 0.078s-0.155-0.028-0.215-0.078c-0.032-0.031-0.057-0.069-0.073-0.111s-0.022-0.087-0.018-0.132v-1.679c-0.004-0.045 0.002-0.090 0.018-0.132s0.041-0.080 0.073-0.111c0.060-0.051 0.137-0.078 0.215-0.078s0.155 0.028 0.215 0.078c0.032 0.031 0.057 0.069 0.073 0.111s0.022 0.087 0.018 0.132v1.679z"></path>
    <path d="M7.554 22.477v-3.179h-0.44l-0.578 1.683h-0.008l-0.583-1.683h-0.436v3.179h0.454v-1.934h0.008l0.445 1.367h0.227l0.448-1.367h0.008v1.934h0.454z"></path>
    <path d="M10.135 19.52c-0.070-0.078-0.158-0.138-0.257-0.174-0.106-0.035-0.218-0.051-0.329-0.049h-0.675v3.179h0.453v-1.242h0.233c0.141 0.006 0.282-0.023 0.409-0.087 0.103-0.057 0.189-0.141 0.249-0.243 0.052-0.085 0.088-0.179 0.104-0.277 0.018-0.12 0.026-0.241 0.025-0.361 0.004-0.153-0.010-0.305-0.044-0.454-0.030-0.11-0.088-0.211-0.167-0.292zM9.901 20.49c-0.002 0.058-0.016 0.114-0.042 0.166-0.026 0.049-0.067 0.088-0.117 0.111-0.067 0.030-0.14 0.044-0.214 0.040h-0.207v-1.081h0.233c0.070-0.003 0.14 0.010 0.204 0.040 0.047 0.027 0.084 0.068 0.106 0.117 0.025 0.056 0.038 0.116 0.040 0.177 0 0.067 0 0.137 0 0.211s0.005 0.15 0 0.218h-0.005z"></path>
    <path d="M12.28 19.297h-0.371l-0.701 3.179h0.453l0.133-0.683h0.618l0.133 0.683h0.453l-0.718-3.179zM11.862 21.361l0.223-1.153h0.008l0.222 1.153h-0.453z"></path>
    <path d="M15.208 21.213h-0.008l-0.684-1.915h-0.436v3.179h0.453v-1.912h0.009l0.692 1.912h0.426v-3.179h-0.453v1.915z"></path>
    <path d="M17.976 19.297l-0.364 1.264h-0.009l-0.364-1.264h-0.48l0.622 1.836v1.344h0.453v-1.344l0.622-1.836h-0.48z"></path>
    <path d="M0 23.374h0.218v0.613h0.148v-0.613h0.217v-0.126h-0.584v0.126z"></path>
    <path d="M1.835 23.249l-0.286 0.738h0.158l0.061-0.168h0.294l0.063 0.168h0.161l-0.293-0.738h-0.158zM1.812 23.695l0.1-0.273 0.1 0.273h-0.201z"></path>
    <path d="M3.65 23.715h0.17v0.095c-0.050 0.040-0.111 0.062-0.175 0.062-0.030 0.002-0.060-0.004-0.087-0.016s-0.051-0.031-0.070-0.054c-0.039-0.056-0.058-0.124-0.055-0.192 0-0.164 0.071-0.246 0.213-0.246 0.037-0.004 0.074 0.006 0.105 0.028s0.053 0.053 0.062 0.090l0.146-0.028c-0.032-0.144-0.135-0.217-0.313-0.217-0.095-0.003-0.187 0.031-0.258 0.095-0.037 0.037-0.066 0.081-0.084 0.13s-0.026 0.102-0.022 0.154c-0.004 0.101 0.029 0.2 0.095 0.277 0.036 0.037 0.080 0.066 0.128 0.085s0.1 0.026 0.152 0.023c0.115 0.003 0.228-0.039 0.313-0.117v-0.291h-0.32v0.124z"></path>
    <path d="M5.503 23.249h-0.149v0.738h0.517v-0.126h-0.368v-0.613z"></path>
    <path d="M7.070 23.249h-0.149v0.738h0.149v-0.738z"></path>
    <path d="M8.601 23.742l-0.302-0.493h-0.145v0.738h0.139v-0.482l0.297 0.482h0.148v-0.738h-0.137v0.493z"></path>
    <path d="M9.986 23.662h0.368v-0.126h-0.368v-0.162h0.396v-0.126h-0.545v0.738h0.56v-0.126h-0.411v-0.2z"></path>
    <path d="M13.344 23.54h-0.291v-0.291h-0.148v0.738h0.148v-0.323h0.291v0.323h0.148v-0.738h-0.148v0.291z"></path>
    <path d="M14.737 23.662h0.369v-0.126h-0.369v-0.162h0.397v-0.126h-0.545v0.738h0.559v-0.126h-0.411v-0.2z"></path>
    <path d="M16.626 23.662c0.128-0.020 0.194-0.088 0.194-0.205 0.004-0.031-0.001-0.063-0.014-0.092s-0.033-0.054-0.059-0.072c-0.067-0.034-0.141-0.049-0.216-0.043h-0.313v0.738h0.148v-0.309h0.029c0.032-0.002 0.063 0.004 0.092 0.016 0.022 0.013 0.040 0.032 0.053 0.054l0.161 0.235h0.177l-0.090-0.144c-0.040-0.071-0.096-0.132-0.163-0.177zM16.477 23.56h-0.11v-0.185h0.117c0.051-0.004 0.102 0.002 0.151 0.018 0.011 0.010 0.019 0.021 0.025 0.035s0.008 0.028 0.008 0.042c-0.001 0.014-0.005 0.029-0.011 0.041s-0.016 0.024-0.028 0.032c-0.049 0.015-0.1 0.021-0.151 0.018z"></path>
    <path d="M18.051 23.662h0.368v-0.126h-0.368v-0.162h0.397v-0.126h-0.546v0.738h0.56v-0.126h-0.411v-0.2z"></path>
</symbol>
<symbol id="icon-group3" viewBox="0 0 104 56">
    <path d="M3.986 23.545c0.009 0 0.019 0.002 0.027 0.005s0.016 0.008 0.023 0.014l0.129 0.122c-0.1 0.098-0.224 0.177-0.364 0.231-0.163 0.058-0.339 0.087-0.515 0.083-0.166 0.003-0.331-0.023-0.485-0.077-0.139-0.050-0.263-0.124-0.365-0.218-0.104-0.098-0.184-0.212-0.236-0.337-0.056-0.139-0.084-0.285-0.082-0.432-0.002-0.148 0.028-0.295 0.089-0.434 0.056-0.125 0.142-0.24 0.25-0.337 0.11-0.095 0.242-0.17 0.388-0.22 0.159-0.053 0.329-0.079 0.499-0.077 0.159-0.003 0.316 0.021 0.464 0.070 0.128 0.047 0.245 0.113 0.347 0.195l-0.108 0.13c-0.007 0.009-0.017 0.017-0.027 0.023-0.013 0.008-0.028 0.011-0.044 0.010-0.017-0.001-0.033-0.006-0.047-0.014l-0.058-0.035-0.081-0.044c-0.035-0.016-0.071-0.031-0.108-0.043-0.048-0.015-0.097-0.026-0.147-0.035-0.063-0.010-0.128-0.015-0.192-0.014-0.123-0.001-0.245 0.018-0.359 0.058-0.106 0.037-0.202 0.092-0.281 0.163-0.081 0.075-0.143 0.164-0.183 0.26-0.046 0.11-0.068 0.226-0.066 0.342-0.002 0.118 0.020 0.236 0.066 0.348 0.039 0.095 0.1 0.183 0.179 0.258 0.074 0.070 0.166 0.125 0.268 0.16 0.105 0.037 0.219 0.056 0.333 0.055 0.066 0.001 0.132-0.003 0.197-0.011 0.107-0.011 0.209-0.043 0.299-0.093 0.045-0.025 0.088-0.054 0.128-0.086 0.017-0.014 0.038-0.021 0.061-0.022z"></path>
    <path d="M7.719 22.935c0.002 0.146-0.028 0.292-0.087 0.429-0.053 0.125-0.136 0.238-0.243 0.333s-0.238 0.17-0.382 0.219c-0.316 0.103-0.666 0.103-0.982 0-0.143-0.050-0.272-0.125-0.38-0.22-0.108-0.097-0.191-0.211-0.246-0.337-0.116-0.278-0.116-0.582 0-0.86 0.055-0.125 0.139-0.24 0.246-0.338 0.108-0.092 0.237-0.164 0.38-0.211 0.316-0.105 0.666-0.105 0.982 0 0.144 0.050 0.273 0.125 0.381 0.22 0.106 0.096 0.189 0.209 0.244 0.333 0.060 0.138 0.089 0.285 0.087 0.432zM7.379 22.935c0.003-0.117-0.018-0.234-0.061-0.345-0.036-0.095-0.095-0.183-0.173-0.258-0.076-0.071-0.169-0.127-0.273-0.163-0.23-0.076-0.484-0.076-0.714 0-0.104 0.036-0.197 0.092-0.273 0.163-0.079 0.075-0.138 0.162-0.175 0.258-0.082 0.225-0.082 0.466 0 0.69 0.036 0.096 0.096 0.183 0.175 0.258 0.076 0.071 0.169 0.126 0.273 0.162 0.23 0.074 0.484 0.074 0.714 0 0.104-0.036 0.197-0.091 0.273-0.162 0.078-0.075 0.136-0.163 0.173-0.258 0.043-0.111 0.064-0.228 0.061-0.345z"></path>
    <path d="M10.265 23.297l0.034 0.077c0.013-0.028 0.024-0.052 0.037-0.077 0.012-0.026 0.026-0.051 0.042-0.076l0.826-1.282c0.016-0.022 0.031-0.036 0.047-0.040 0.022-0.006 0.045-0.008 0.068-0.007h0.244v2.086h-0.289v-1.534c0-0.019 0-0.041 0-0.065-0.002-0.024-0.002-0.048 0-0.072l-0.831 1.3c-0.011 0.019-0.027 0.036-0.049 0.047s-0.046 0.018-0.071 0.017h-0.047c-0.025 0-0.050-0.006-0.071-0.017s-0.038-0.028-0.048-0.048l-0.855-1.309c0 0.025 0 0.050 0 0.075s0 0.047 0 0.066v1.534h-0.28v-2.082h0.244c0.023-0.001 0.046 0.001 0.068 0.007 0.020 0.008 0.036 0.023 0.045 0.040l0.843 1.284c0.017 0.024 0.031 0.049 0.042 0.075z"></path>
    <path d="M13.372 23.193v0.781h-0.323v-2.083h0.721c0.136-0.002 0.272 0.013 0.402 0.046 0.105 0.025 0.202 0.070 0.284 0.13 0.072 0.056 0.127 0.126 0.162 0.204 0.038 0.085 0.057 0.175 0.055 0.266 0.001 0.091-0.019 0.182-0.060 0.266-0.039 0.080-0.099 0.151-0.174 0.208-0.083 0.063-0.18 0.11-0.286 0.138-0.126 0.034-0.257 0.051-0.389 0.048l-0.391-0.006zM13.372 22.97h0.391c0.085 0.001 0.169-0.010 0.25-0.032 0.067-0.019 0.128-0.050 0.181-0.090 0.049-0.038 0.086-0.085 0.11-0.138 0.026-0.056 0.040-0.115 0.039-0.175 0.004-0.058-0.007-0.116-0.032-0.17s-0.064-0.102-0.113-0.142c-0.123-0.082-0.279-0.122-0.435-0.112h-0.391v0.859z"></path>
    <path d="M17.716 23.977h-0.255c-0.026 0.001-0.051-0.006-0.071-0.019-0.018-0.013-0.033-0.030-0.042-0.048l-0.22-0.504h-1.104l-0.228 0.504c-0.008 0.018-0.022 0.035-0.040 0.047-0.021 0.014-0.046 0.021-0.073 0.021h-0.255l0.969-2.086h0.336l0.982 2.086zM16.116 23.203h0.911l-0.385-0.849c-0.029-0.064-0.054-0.129-0.073-0.196l-0.037 0.109c-0.011 0.033-0.024 0.064-0.036 0.088l-0.381 0.848z"></path>
    <path d="M19.112 21.901c0.019 0.009 0.036 0.022 0.048 0.037l1.414 1.573c0-0.025 0-0.050 0-0.073s0-0.047 0-0.069v-1.477h0.289v2.086h-0.162c-0.023 0.001-0.046-0.004-0.066-0.012-0.020-0.010-0.038-0.023-0.052-0.039l-1.412-1.571c0.002 0.024 0.002 0.048 0 0.072 0 0.023 0 0.044 0 0.064v1.487h-0.289v-2.086h0.171c0.020-0 0.040 0.003 0.058 0.010z"></path>
    <path d="M23.245 23.148v0.828h-0.323v-0.828l-0.894-1.256h0.289c0.025-0.001 0.050 0.005 0.069 0.018 0.018 0.013 0.032 0.029 0.044 0.047l0.559 0.81c0.023 0.035 0.042 0.066 0.058 0.097s0.029 0.059 0.040 0.088l0.042-0.090c0.016-0.033 0.034-0.065 0.055-0.095l0.551-0.816c0.012-0.016 0.026-0.031 0.042-0.044 0.019-0.014 0.044-0.022 0.069-0.021h0.292l-0.895 1.262z"></path>
    <path d="M10.105 18.39c0.141 0.015 0.283 0.028 0.427 0.039 2.18-0.833 4.025-2.197 5.303-3.921s1.933-3.732 1.883-5.772l-2.403-2.053c0.489 2.172 0.26 4.418-0.66 6.485s-2.495 3.876-4.549 5.222z"></path>
    <path d="M9.247 18.295l0.065 0.011c2.195-1.341 3.869-3.215 4.804-5.378s1.090-4.516 0.444-6.754l-3.422-2.924c1.384 2.403 1.941 5.093 1.607 7.757s-1.547 5.191-3.497 7.288z"></path>
    <path d="M20.854 11.147c-0.581 2.242-1.994 4.263-4.027 5.765-0.594 0.441-1.234 0.834-1.913 1.173 1.656-0.416 3.177-1.151 4.448-2.148s2.256-2.231 2.88-3.606l-1.388-1.184z"></path>
    <path d="M20.309 10.817l-1.976-1.688c-0.038 1.925-0.678 3.806-1.855 5.448s-2.847 2.985-4.836 3.889h0.010c0.443-0 0.886-0.023 1.327-0.068 1.859-0.648 3.502-1.68 4.781-3.003s2.155-2.895 2.55-4.578z"></path>
    <path d="M9.533 2.017l-2.358-2.017c-2.107 0.696-3.92 1.919-5.2 3.51s-1.969 3.474-1.975 5.405v0c0.008 2.133 0.848 4.203 2.388 5.882s3.691 2.872 6.113 3.389c2.162-2.251 3.428-5.032 3.614-7.94s-0.719-5.79-2.581-8.228z"></path>
    <path d="M25.756 10.506c-0.009-2.531-1.189-4.956-3.283-6.745s-4.933-2.798-7.895-2.805c-1.369-0.001-2.726 0.215-4.002 0.636l14.434 12.332c0.494-1.090 0.747-2.249 0.747-3.418z"></path>
</symbol>
<symbol id="icon-group4" viewBox="0 0 104 56">
    <path d="M7.656 7.328h-0.002c-1.396 0-2.529 1.021-2.529 2.28v0.002c0 1.259 1.132 2.28 2.529 2.28h0.002c1.396 0 2.529-1.021 2.529-2.28v-0.002c0-1.259-1.132-2.28-2.529-2.28z"></path>
    <path d="M26.319 6.599c-0.004-1.749-0.776-3.425-2.147-4.662s-3.23-1.933-5.17-1.937v0c-1.94 0.003-3.8 0.699-5.172 1.936s-2.145 2.913-2.149 4.663v9.643c0 0 14.636-1.47 14.638-9.642v-0.001z"></path>
    <path d="M0 19.407c0.004 1.217 0.541 2.383 1.495 3.243s2.247 1.346 3.597 1.349c1.349-0.004 2.642-0.488 3.596-1.349s1.492-2.026 1.496-3.242v-6.71c0 0-10.184 1.023-10.184 6.709zM5.092 20.61c-0.264 0-0.522-0.071-0.741-0.203s-0.39-0.32-0.491-0.54-0.127-0.461-0.076-0.695c0.051-0.233 0.178-0.447 0.365-0.616s0.424-0.283 0.683-0.329c0.259-0.046 0.527-0.023 0.77 0.068s0.452 0.245 0.598 0.443c0.147 0.198 0.225 0.43 0.225 0.668 0.001 0.158-0.033 0.315-0.1 0.462s-0.165 0.279-0.289 0.392c-0.124 0.112-0.271 0.201-0.433 0.262s-0.336 0.092-0.511 0.092v-0.005z"></path>
    <path d="M14.405 18.448v2.497h-0.514v-2.497h0.514zM15.4 19.515v0.401h-1.135v-0.401h1.135zM15.52 18.448v0.403h-1.255v-0.403h1.255zM17.869 19.638v0.118c0 0.19-0.026 0.36-0.077 0.511s-0.124 0.28-0.218 0.386c-0.094 0.105-0.206 0.186-0.336 0.242-0.129 0.056-0.273 0.084-0.43 0.084-0.157 0-0.3-0.028-0.43-0.084-0.129-0.056-0.241-0.137-0.336-0.242-0.095-0.106-0.169-0.235-0.221-0.386-0.051-0.151-0.077-0.321-0.077-0.511v-0.118c0-0.191 0.026-0.361 0.077-0.511 0.051-0.151 0.124-0.28 0.218-0.386 0.095-0.106 0.207-0.188 0.336-0.244 0.13-0.056 0.274-0.084 0.43-0.084 0.158 0 0.301 0.028 0.43 0.084 0.13 0.056 0.242 0.137 0.336 0.244 0.095 0.106 0.168 0.235 0.22 0.386 0.053 0.15 0.079 0.32 0.079 0.511zM17.35 19.756v-0.122c0-0.133-0.012-0.249-0.036-0.35s-0.059-0.185-0.106-0.254-0.104-0.12-0.172-0.154c-0.067-0.035-0.145-0.053-0.232-0.053s-0.164 0.018-0.232 0.053c-0.066 0.034-0.123 0.086-0.17 0.154-0.046 0.069-0.081 0.153-0.105 0.254s-0.036 0.217-0.036 0.35v0.122c0 0.131 0.012 0.248 0.036 0.35 0.024 0.101 0.059 0.186 0.106 0.256 0.047 0.069 0.104 0.121 0.172 0.156s0.145 0.053 0.232 0.053c0.087 0 0.164-0.018 0.232-0.053s0.124-0.087 0.17-0.156c0.046-0.070 0.081-0.155 0.105-0.256 0.024-0.102 0.036-0.218 0.036-0.35zM19.54 20.291c0-0.045-0.007-0.085-0.021-0.12-0.013-0.037-0.037-0.070-0.072-0.1-0.035-0.031-0.085-0.061-0.149-0.091s-0.147-0.061-0.249-0.093c-0.113-0.037-0.221-0.078-0.322-0.124-0.101-0.046-0.19-0.099-0.268-0.159-0.077-0.062-0.137-0.133-0.182-0.214-0.043-0.081-0.065-0.176-0.065-0.283 0-0.104 0.023-0.198 0.069-0.283 0.046-0.086 0.11-0.159 0.192-0.22 0.082-0.062 0.179-0.109 0.292-0.142 0.113-0.033 0.237-0.050 0.372-0.050 0.184 0 0.345 0.033 0.482 0.099s0.244 0.157 0.319 0.273c0.077 0.115 0.115 0.247 0.115 0.396h-0.511c0-0.073-0.015-0.137-0.046-0.192-0.030-0.056-0.075-0.1-0.137-0.132-0.061-0.032-0.137-0.048-0.23-0.048-0.089 0-0.163 0.014-0.223 0.041-0.059 0.026-0.104 0.062-0.134 0.108-0.030 0.045-0.045 0.095-0.045 0.151 0 0.042 0.010 0.081 0.031 0.115 0.022 0.034 0.054 0.066 0.096 0.096s0.094 0.058 0.156 0.084c0.062 0.026 0.133 0.052 0.214 0.077 0.136 0.041 0.256 0.087 0.358 0.139 0.104 0.051 0.191 0.109 0.261 0.173s0.122 0.137 0.158 0.218c0.035 0.081 0.053 0.173 0.053 0.276 0 0.109-0.021 0.206-0.063 0.292s-0.104 0.158-0.184 0.218c-0.080 0.059-0.175 0.105-0.286 0.135s-0.235 0.046-0.372 0.046c-0.123 0-0.245-0.016-0.365-0.048-0.12-0.033-0.229-0.083-0.328-0.149-0.097-0.066-0.175-0.151-0.233-0.254s-0.087-0.225-0.087-0.365h0.516c0 0.078 0.012 0.143 0.036 0.197s0.058 0.097 0.101 0.13c0.045 0.033 0.097 0.057 0.158 0.072 0.062 0.015 0.129 0.022 0.202 0.022 0.089 0 0.162-0.013 0.22-0.038 0.058-0.025 0.101-0.060 0.129-0.105 0.029-0.045 0.043-0.095 0.043-0.151zM21.52 18.448v2.497h-0.513v-2.497h0.513zM22.289 18.448v0.403h-2.037v-0.403h2.037zM24.258 20.543v0.401h-1.329v-0.401h1.329zM23.096 18.448v2.497h-0.514v-2.497h0.514zM24.084 19.465v0.391h-1.156v-0.391h1.156zM24.256 18.448v0.403h-1.327v-0.403h1.327zM24.558 18.448h0.931c0.191 0 0.355 0.029 0.492 0.086 0.138 0.057 0.245 0.142 0.319 0.254s0.111 0.25 0.111 0.413c0 0.134-0.023 0.249-0.069 0.345-0.045 0.095-0.108 0.174-0.19 0.238-0.081 0.063-0.177 0.113-0.286 0.151l-0.163 0.086h-0.809l-0.003-0.401h0.602c0.090 0 0.165-0.016 0.225-0.048s0.104-0.077 0.134-0.134c0.031-0.057 0.046-0.123 0.046-0.199 0-0.080-0.015-0.149-0.045-0.208s-0.075-0.103-0.136-0.134-0.137-0.046-0.228-0.046h-0.417v2.094h-0.514v-2.497zM25.954 20.945l-0.569-1.113 0.544-0.003 0.576 1.092v0.024h-0.55zM28.655 20.055h-0.636v-0.401h0.636c0.098 0 0.178-0.016 0.24-0.048 0.062-0.033 0.107-0.079 0.136-0.137s0.043-0.124 0.043-0.197c0-0.074-0.014-0.144-0.043-0.208s-0.074-0.115-0.136-0.154-0.142-0.058-0.24-0.058h-0.458v2.094h-0.514v-2.497h0.972c0.195 0 0.363 0.035 0.502 0.106 0.141 0.070 0.248 0.166 0.322 0.29s0.112 0.265 0.112 0.424c0 0.161-0.037 0.301-0.112 0.418s-0.182 0.209-0.322 0.273c-0.14 0.064-0.307 0.096-0.502 0.096zM31.621 20.543v0.401h-1.329v-0.401h1.329zM30.46 18.448v2.497h-0.514v-2.497h0.514zM31.448 19.465v0.391h-1.156v-0.391h1.156zM31.62 18.448v0.403h-1.327v-0.403h1.327zM33.072 18.448v2.497h-0.513v-2.497h0.513zM33.841 18.448v0.403h-2.037v-0.403h2.037zM35.809 20.543v0.401h-1.329v-0.401h1.329zM34.648 18.448v2.497h-0.514v-2.497h0.514zM35.636 19.465v0.391h-1.156v-0.391h1.156zM35.808 18.448v0.403h-1.327v-0.403h1.327zM36.109 18.448h0.931c0.191 0 0.355 0.029 0.492 0.086 0.138 0.057 0.245 0.142 0.319 0.254s0.111 0.25 0.111 0.413c0 0.134-0.023 0.249-0.069 0.345-0.045 0.095-0.108 0.174-0.19 0.238-0.081 0.063-0.177 0.113-0.286 0.151l-0.163 0.086h-0.809l-0.003-0.401h0.602c0.090 0 0.165-0.016 0.225-0.048s0.104-0.077 0.134-0.134c0.031-0.057 0.046-0.123 0.046-0.199 0-0.080-0.015-0.149-0.045-0.208s-0.075-0.103-0.135-0.134c-0.061-0.031-0.137-0.046-0.228-0.046h-0.417v2.094h-0.514v-2.497zM37.505 20.945l-0.569-1.113 0.544-0.003 0.576 1.092v0.024h-0.55zM39.659 20.291c0-0.045-0.007-0.085-0.021-0.12-0.013-0.037-0.037-0.070-0.072-0.1-0.035-0.031-0.085-0.061-0.149-0.091s-0.147-0.061-0.249-0.093c-0.113-0.037-0.221-0.078-0.322-0.124-0.101-0.046-0.19-0.099-0.268-0.159-0.077-0.062-0.137-0.133-0.182-0.214-0.043-0.081-0.065-0.176-0.065-0.283 0-0.104 0.023-0.198 0.069-0.283 0.046-0.086 0.11-0.159 0.192-0.22 0.082-0.062 0.179-0.109 0.292-0.142 0.113-0.033 0.237-0.050 0.372-0.050 0.184 0 0.345 0.033 0.482 0.099s0.244 0.157 0.319 0.273c0.077 0.115 0.115 0.247 0.115 0.396h-0.511c0-0.073-0.015-0.137-0.046-0.192-0.030-0.056-0.075-0.1-0.137-0.132-0.061-0.032-0.137-0.048-0.23-0.048-0.089 0-0.163 0.014-0.223 0.041-0.059 0.026-0.104 0.062-0.134 0.108-0.030 0.045-0.045 0.095-0.045 0.151 0 0.042 0.010 0.081 0.031 0.115 0.022 0.034 0.054 0.066 0.096 0.096s0.094 0.058 0.156 0.084c0.062 0.026 0.133 0.052 0.214 0.077 0.136 0.041 0.256 0.087 0.358 0.139 0.104 0.051 0.191 0.109 0.261 0.173s0.122 0.137 0.158 0.218c0.035 0.081 0.053 0.173 0.053 0.276 0 0.109-0.021 0.206-0.063 0.292s-0.103 0.158-0.184 0.218c-0.080 0.059-0.175 0.105-0.286 0.135s-0.235 0.046-0.372 0.046c-0.123 0-0.245-0.016-0.365-0.048-0.12-0.033-0.229-0.083-0.328-0.149-0.097-0.066-0.175-0.151-0.233-0.254s-0.087-0.225-0.087-0.365h0.516c0 0.078 0.012 0.143 0.036 0.197s0.058 0.097 0.101 0.13c0.045 0.033 0.097 0.057 0.158 0.072 0.062 0.015 0.129 0.022 0.202 0.022 0.089 0 0.162-0.013 0.22-0.038 0.058-0.025 0.101-0.060 0.129-0.105 0.029-0.045 0.043-0.095 0.043-0.151z"></path>
</symbol>
<symbol id="icon-group5" viewBox="0 0 104 56">
    <path d="M2.5 20.021c0.128 0.143 0.196 0.321 0.193 0.505 0.007 0.12-0.017 0.239-0.069 0.349s-0.13 0.209-0.23 0.288c-0.249 0.169-0.557 0.252-0.868 0.233h-1.526v-3.2h1.495c0.295-0.018 0.588 0.057 0.828 0.213 0.097 0.073 0.173 0.165 0.223 0.269s0.073 0.217 0.067 0.33c0.009 0.177-0.053 0.35-0.174 0.489-0.116 0.127-0.276 0.215-0.455 0.25 0.202 0.033 0.385 0.13 0.516 0.273zM0.71 19.538h0.639c0.145 0.010 0.289-0.028 0.406-0.106 0.048-0.039 0.085-0.088 0.109-0.142s0.033-0.113 0.028-0.171c0.004-0.058-0.005-0.116-0.029-0.17s-0.060-0.103-0.107-0.143c-0.12-0.080-0.269-0.119-0.418-0.108h-0.628v0.839zM1.818 20.765c0.051-0.040 0.092-0.090 0.118-0.147s0.038-0.117 0.033-0.178c0.004-0.062-0.008-0.123-0.035-0.18s-0.068-0.108-0.12-0.148c-0.125-0.083-0.279-0.124-0.434-0.116h-0.67v0.88h0.679c0.153 0.008 0.304-0.031 0.429-0.111z"></path>
    <path d="M5.556 21.396l-0.832-1.25h-0.313v1.25h-0.715v-3.2h1.354c0.341-0.021 0.679 0.076 0.943 0.272 0.189 0.174 0.303 0.402 0.322 0.645s-0.060 0.483-0.221 0.679c-0.167 0.172-0.395 0.287-0.646 0.325l0.885 1.279h-0.778zM4.412 19.71h0.585c0.406 0 0.609-0.162 0.609-0.485 0.004-0.066-0.007-0.132-0.033-0.194s-0.065-0.118-0.117-0.166c-0.128-0.096-0.294-0.143-0.46-0.13h-0.592l0.007 0.974z"></path>
    <path d="M9.466 20.752h-1.425l-0.252 0.644h-0.75l1.309-3.164h0.811l1.304 3.164h-0.75l-0.247-0.644zM9.275 20.268l-0.521-1.35-0.521 1.35h1.042z"></path>
    <path d="M14.36 21.396h-0.71l-1.592-2.176v2.176h-0.708v-3.2h0.708l1.592 2.188v-2.188h0.71v3.2z"></path>
    <path d="M18.412 20.63c-0.147 0.242-0.371 0.438-0.642 0.564-0.309 0.141-0.652 0.21-0.998 0.202h-1.264v-3.2h1.264c0.346-0.008 0.688 0.059 0.998 0.197 0.272 0.123 0.496 0.318 0.642 0.558 0.146 0.26 0.222 0.548 0.222 0.839s-0.076 0.579-0.222 0.839zM17.6 20.554c0.203-0.213 0.314-0.483 0.314-0.764s-0.111-0.551-0.314-0.764c-0.245-0.193-0.564-0.29-0.889-0.272h-0.493v2.071h0.493c0.325 0.018 0.644-0.079 0.889-0.272z"></path>
    <path d="M9.91 0.4c0 0 9.165 3.115 8.971 7.623v7.624c0 0-9.158-3.117-8.967-7.624l-0.003-7.623z"></path>
    <path d="M27.046 13.862c1.731-1.072 3.733-1.737 5.823-1.932v-2.387c-2.408 0.836-4.451 2.351-5.823 4.319z"></path>
    <path d="M26.006 14.581c1.417-2.568 3.873-4.55 6.863-5.538v-6.877c0 0-13.053 4.437-12.777 10.857v10.855c0 0 0.582-0.199 1.497-0.571 0-0.347 0-0.697 0.042-1.049 0.27-2.98 1.844-5.742 4.375-7.678z"></path>
    <path d="M24.765 18.614c0.069-0.753 0.222-1.497 0.457-2.223-1.576 1.672-2.531 3.746-2.729 5.932-0.019 0.206-0.030 0.413-0.035 0.625 0.741-0.32 1.604-0.721 2.511-1.191-0.231-1.034-0.3-2.092-0.203-3.143z"></path>
    <path d="M25.284 18.653c-0.087 0.951-0.033 1.908 0.161 2.846 3.566-1.921 7.573-4.889 7.419-8.476v-0.313c-2.548 0.257-4.932 1.259-6.785 2.854-0.434 0.988-0.702 2.029-0.795 3.089z"></path>
</symbol>
<symbol id="icon-group6" viewBox="0 0 104 56">
    <path d="M25.349 11.436c-0.237-0.315-0.35-0.688-0.323-1.062v-1.54c0-0.472 0.107-0.831 0.321-1.076s0.582-0.368 1.104-0.367c0.49 0 0.838 0.104 1.044 0.313 0.224 0.267 0.334 0.593 0.309 0.921v0.362h-0.877v-0.367c0.003-0.12-0.005-0.24-0.025-0.359-0.013-0.081-0.057-0.156-0.125-0.213-0.090-0.061-0.204-0.091-0.318-0.083-0.12-0.008-0.239 0.024-0.334 0.088-0.076 0.063-0.127 0.145-0.145 0.235-0.025 0.126-0.037 0.253-0.035 0.381v1.869c-0.014 0.18 0.025 0.361 0.113 0.525 0.044 0.056 0.104 0.1 0.175 0.127s0.149 0.038 0.226 0.029c0.112 0.008 0.224-0.022 0.311-0.085 0.071-0.061 0.117-0.141 0.131-0.227 0.020-0.124 0.030-0.249 0.027-0.375v-0.379h0.877v0.346c0.025 0.343-0.082 0.683-0.303 0.968-0.202 0.229-0.545 0.343-1.050 0.343s-0.886-0.122-1.102-0.376z"></path>
    <path d="M29.001 11.452c-0.221-0.24-0.332-0.589-0.332-1.051v-1.62c0-0.458 0.111-0.804 0.332-1.039s0.592-0.352 1.111-0.351c0.516 0 0.884 0.117 1.106 0.351 0.222 0.235 0.334 0.581 0.334 1.039v1.62c0 0.458-0.113 0.809-0.338 1.050s-0.592 0.362-1.102 0.362-0.888-0.122-1.111-0.36zM30.521 11.063c0.079-0.15 0.115-0.315 0.105-0.479v-1.984c0.010-0.162-0.025-0.323-0.104-0.47-0.044-0.057-0.107-0.101-0.179-0.129s-0.153-0.037-0.231-0.028c-0.079-0.009-0.159 0-0.232 0.028s-0.135 0.072-0.18 0.129c-0.080 0.147-0.116 0.308-0.105 0.47v1.993c-0.011 0.165 0.025 0.33 0.105 0.48 0.051 0.051 0.114 0.091 0.185 0.119s0.148 0.042 0.225 0.042 0.155-0.014 0.225-0.042c0.071-0.028 0.134-0.068 0.185-0.119v-0.009z"></path>
    <path d="M32.607 7.438h0.944l0.71 2.989 0.726-2.989h0.919l0.093 4.315h-0.679l-0.073-2.999-0.701 2.999h-0.545l-0.726-3.010-0.067 3.010h-0.686l0.085-4.315z"></path>
    <path d="M37.058 7.438h1.471c0.847 0 1.271 0.408 1.271 1.225 0 0.782-0.446 1.173-1.338 1.172h-0.501v1.918h-0.908l0.005-4.315zM38.314 9.282c0.090 0.010 0.181 0.003 0.267-0.021s0.165-0.063 0.232-0.116c0.104-0.146 0.15-0.317 0.131-0.487 0.005-0.132-0.010-0.263-0.044-0.392-0.013-0.043-0.036-0.083-0.067-0.118s-0.070-0.065-0.115-0.087c-0.126-0.052-0.265-0.076-0.405-0.069h-0.352v1.289h0.352z"></path>
    <path d="M41.109 7.438h0.975l1.001 4.315h-0.846l-0.198-0.995h-0.87l-0.203 0.995h-0.859l1-4.315zM41.942 10.258l-0.34-1.811-0.34 1.811h0.679z"></path>
    <path d="M43.892 7.438h0.636l1.217 2.461v-2.461h0.754v4.315h-0.605l-1.224-2.57v2.57h-0.779l0.002-4.315z"></path>
    <path d="M48.263 10.108l-1.011-2.664h0.852l0.617 1.711 0.579-1.711h0.833l-0.999 2.664v1.645h-0.872v-1.645z"></path>
    <path d="M26.751 13.639v0.226h-0.741v1.753h-0.31v-1.753h-0.745v-0.226h1.796z"></path>
    <path d="M29.073 15.618h-0.24c-0.024 0.001-0.048-0.005-0.067-0.019-0.018-0.011-0.032-0.027-0.040-0.045l-0.214-0.47h-1.028l-0.214 0.47c-0.006 0.020-0.017 0.038-0.033 0.053-0.019 0.013-0.043 0.020-0.067 0.019h-0.24l0.908-1.979h0.316l0.919 1.971zM27.57 14.884h0.857l-0.363-0.805c-0.027-0.061-0.049-0.123-0.067-0.186-0.013 0.038-0.024 0.074-0.035 0.105l-0.033 0.083-0.36 0.804z"></path>
    <path d="M30.639 15.424c0.057 0.003 0.114 0.003 0.171 0 0.049-0.004 0.098-0.012 0.145-0.024 0.044-0.009 0.088-0.021 0.131-0.036 0.040-0.014 0.080-0.031 0.122-0.049v-0.445h-0.363c-0.009 0-0.018-0.001-0.026-0.003s-0.016-0.007-0.023-0.012c-0.006-0.004-0.011-0.010-0.014-0.016s-0.005-0.013-0.004-0.020v-0.152h0.705v0.758c-0.057 0.036-0.118 0.067-0.182 0.094-0.065 0.028-0.132 0.050-0.202 0.067-0.074 0.019-0.15 0.032-0.227 0.041-0.088 0.008-0.177 0.013-0.265 0.013-0.157 0.001-0.312-0.024-0.458-0.074-0.136-0.047-0.259-0.117-0.363-0.207-0.101-0.090-0.181-0.197-0.234-0.313-0.057-0.131-0.086-0.27-0.084-0.411-0.002-0.141 0.026-0.281 0.082-0.414 0.052-0.117 0.132-0.224 0.234-0.313 0.104-0.089 0.227-0.159 0.363-0.205 0.156-0.051 0.321-0.075 0.487-0.074 0.085-0 0.169 0.006 0.252 0.017 0.074 0.010 0.146 0.027 0.216 0.050 0.064 0.021 0.124 0.047 0.182 0.078 0.056 0.031 0.108 0.065 0.158 0.103l-0.087 0.122c-0.007 0.011-0.017 0.021-0.029 0.027s-0.027 0.010-0.041 0.010c-0.020-0.001-0.040-0.006-0.056-0.016-0.027-0.013-0.056-0.028-0.089-0.047-0.039-0.021-0.079-0.039-0.122-0.053-0.054-0.019-0.11-0.033-0.167-0.044-0.076-0.012-0.153-0.018-0.231-0.017-0.12-0.001-0.239 0.017-0.35 0.055-0.101 0.035-0.192 0.088-0.267 0.157-0.075 0.071-0.133 0.155-0.169 0.246-0.081 0.214-0.081 0.445 0 0.66 0.040 0.093 0.102 0.178 0.182 0.249 0.074 0.068 0.165 0.121 0.265 0.157 0.115 0.034 0.238 0.048 0.36 0.039z"></path>
    <path d="M33.533 15.393h0.991v0.226h-1.295v-1.979h0.311l-0.007 1.753z"></path>
    <path d="M35.556 15.618h-0.31v-1.979h0.31v1.979z"></path>
    <path d="M36.711 13.649c0.018 0.009 0.035 0.021 0.047 0.036l1.327 1.492c-0.002-0.023-0.002-0.047 0-0.071 0-0.022 0-0.044 0-0.064v-1.41h0.271v1.987h-0.156c-0.023 0.002-0.046-0.002-0.067-0.011-0.019-0.010-0.035-0.023-0.049-0.038l-1.325-1.49c0 0.023 0 0.045 0 0.067s0 0.042 0 0.061v1.41h-0.26v-1.979h0.162c0.018 0 0.035 0.003 0.051 0.009z"></path>
    <path d="M40.642 13.639v0.218h-1.1v0.653h0.892v0.21h-0.892v0.675h1.1v0.218h-1.42v-1.974h1.42z"></path>
    <path d="M8.104 1.418l13.788 3.378v11.838l-13.788-3.377v-11.839zM7.22 0.409v13.423l15.554 3.812v-13.422l-15.554-3.814z"></path>
    <path d="M15.556 23.876l-15.556-3.815v-13.422l15.556 3.814v13.423z"></path>
    <path d="M7.478 1.266l13.608 3.336-5.787 4.995-13.61-3.337 5.789-4.993zM7.22 0.409l-7.22 6.23 15.556 3.814 7.218-6.23-15.554-3.814z"></path>
    <path d="M16.432 23.12l6.343-5.474-6.343-1.556v7.030z"></path>
</symbol>

</defs>
</svg>
